<svg id="Layer_1" data-name="Layer 1" xmlns="http://www.w3.org/2000/svg" viewBox="0 0 93 42.41"><defs><style>.cls-1{fill:#f4b271;}.cls-2{fill:none;}.cls-2,.cls-3{stroke:#000;stroke-miterlimit:10;stroke-width:2px;}.cls-3{fill:#bcb3b3;}.cls-4{fill:#0071bc;}.cls-5{font-size:13.78px;font-family:BodoniSvtyTwoSCITCTT-Book, "Bodoni 72 Smallcaps";}.cls-6{fill:#fbb03b;opacity:0.47;}.cls-7{fill:#f7931e;opacity:0.58;}.cls-8{fill:#ffca7f;}</style></defs><g id="bowl1"><path class="cls-1" d="M103.85,98.69a35,35,0,0,0-6.89,15c0,7.83,14.65,14.17,32.72,14.17s32.72-6.34,32.72-14.17a43,43,0,0,0-6.89-15Z" transform="translate(-75 -86.5)"/><path class="cls-2" d="M103.85,98.69a35,35,0,0,0-6.89,15c0,7.83,14.65,14.17,32.72,14.17s32.72-6.34,32.72-14.17a43,43,0,0,0-6.89-15Z" transform="translate(-75 -86.5)"/><ellipse class="cls-3" cx="54.68" cy="12.19" rx="25.83" ry="11.19"/><path class="cls-4" d="M106.87,100.81c4.3-4.27,29.27-8.57,45.61-.22,1,.51.77,1.29.21,2.27-2.77,4.88-30.33,11.76-46,.24C105.8,102.42,106.05,101.62,106.87,100.81Z" transform="translate(-75 -86.5)"/><text class="cls-5" transform="matrix(0.98, 0.22, -0.22, 0.98, 34.39, 30.74)">d</text><text class="cls-5" transform="translate(41.8 32.41) rotate(8.27)">o</text><text class="cls-5" transform="translate(49.21 33.46) rotate(3.41)">n</text><text class="cls-5" transform="matrix(1, -0.03, 0.03, 1, 56.27, 33.86)">g</text><text class="cls-5" transform="translate(63.28 33.61) rotate(-6.97)">z</text><text class="cls-5" transform="translate(69.27 32.82) rotate(-11.05)">i</text><ellipse class="cls-6" cx="43.92" cy="16.07" rx="11.19" ry="4.31"/><ellipse class="cls-7" cx="42.19" cy="16.07" rx="7.75" ry="3.44"/><path class="cls-8" d="M158,118.83A90.32,90.32,0,0,0,152,106c-.89,1-4,2-4,2s2.63,8.44,4.3,14Z" transform="translate(-75 -86.5)"/></g></svg>