<svg id="Layer_1" data-name="Layer 1" xmlns="http://www.w3.org/2000/svg" viewBox="0 0 93 42.41"><defs><style>.cls-1{fill:#ffc4aa;}.cls-2,.cls-6{fill:none;}.cls-2,.cls-3{stroke:#000;stroke-width:2px;}.cls-2,.cls-3,.cls-6{stroke-miterlimit:10;}.cls-3{fill:#bcb3b3;}.cls-4{fill:#944b00;}.cls-5{font-size:13.78px;font-family:BodoniSvtyTwoSCITCTT-Book, "Bodoni 72 Smallcaps";}.cls-6{stroke:#5f3300;stroke-width:0.5px;}.cls-7{fill:#ffd4bf;}</style></defs><g id="bowl2"><path class="cls-1" d="M212.85,33.69A35,35,0,0,0,206,48.74c0,7.83,14.65,14.17,32.72,14.17s32.72-6.34,32.72-14.17a43,43,0,0,0-6.89-15.05Z" transform="translate(-184 -21.5)"/><path class="cls-2" d="M212.85,33.69A35,35,0,0,0,206,48.74c0,7.83,14.65,14.17,32.72,14.17s32.72-6.34,32.72-14.17a43,43,0,0,0-6.89-15.05Z" transform="translate(-184 -21.5)"/><ellipse class="cls-3" cx="54.68" cy="12.19" rx="25.83" ry="11.19"/><path class="cls-4" d="M215.87,35.81c4.3-4.27,29.27-8.57,45.61-.22,1,.51.77,1.29.21,2.27-2.77,4.88-30.33,11.76-46,.24C214.8,37.42,215.05,36.62,215.87,35.81Z" transform="translate(-184 -21.5)"/><text class="cls-5" transform="translate(34.37 30.72) rotate(13.21)">t</text><text class="cls-5" transform="translate(40.49 32.16) rotate(9.08)">h</text><text class="cls-5" transform="matrix(1, 0.08, -0.08, 1, 47.93, 33.31)">e</text><text class="cls-5" transform="translate(54 33.75) rotate(1.4)"> </text><text class="cls-5" transform="matrix(1, -0.04, 0.04, 1, 56.93, 33.87)">c</text><text class="cls-5" transform="translate(63.81 33.57) rotate(-7.58)">a</text><text class="cls-5" transform="translate(70.39 32.66) rotate(-13.1)">t</text><ellipse class="cls-4" cx="43.5" cy="11.5" rx="3.5" ry="3"/><ellipse class="cls-4" cx="49.5" cy="10.5" rx="3.5" ry="3"/><ellipse class="cls-4" cx="37.5" cy="13.5" rx="3.5" ry="3"/><ellipse class="cls-4" cx="74.5" cy="14.5" rx="3.5" ry="3"/><ellipse class="cls-4" cx="70.5" cy="11.5" rx="3.5" ry="3"/><ellipse class="cls-4" cx="63.5" cy="11.5" rx="3.5" ry="3"/><path class="cls-6" d="M221.5,38s1-2.5,5-1.5" transform="translate(-184 -21.5)"/><path class="cls-6" d="M229,37s1.69-3,6.85-.5" transform="translate(-184 -21.5)"/><path class="cls-6" d="M234,35s1.69-3,6.85-.5" transform="translate(-184 -21.5)"/><path class="cls-6" d="M249.32,39.31s1.69-3,6.85-.51" transform="translate(-184 -21.5)"/><path class="cls-6" d="M224.32,38.31s1.69-3,6.85-.51" transform="translate(-184 -21.5)"/><path class="cls-6" d="M251.32,34.31s1.69-3,6.85-.51" transform="translate(-184 -21.5)"/><path class="cls-6" d="M241.32,43.31s1.69-3,6.85-.51" transform="translate(-184 -21.5)"/><path class="cls-6" d="M245.32,38.31s1.69-3,6.85-.51" transform="translate(-184 -21.5)"/><path class="cls-6" d="M231.32,32.31s1.69-3,6.85-.51" transform="translate(-184 -21.5)"/><path class="cls-7" d="M269,52c0-7-5-12-5-12a32.08,32.08,0,0,1-5,3s5,6,5,13Z" transform="translate(-184 -21.5)"/></g></svg>